<svg width="103" height="103" viewBox="0 0 103 103" fill="none" xmlns="http://www.w3.org/2000/svg">
<rect width="103" height="103" rx="51.5" fill="black"/>
<g filter="url(#filter0_i_155_2)">
<path d="M49.8097 61.36C51.4897 62.2933 53.3697 62.76 55.4497 62.76C57.5564 62.76 59.4764 62.2933 61.2097 61.36C62.9697 60.4 64.3564 59.0533 65.3697 57.32V57.32C65.4348 57.2087 65.347 57.074 65.2191 57.0904C63.8718 57.2629 60.4878 57.8231 59.2467 57.8335C59.0665 57.835 58.8884 57.8746 58.7297 57.96V57.96C57.7164 58.52 56.623 58.8 55.4497 58.8C53.6097 58.8 52.0764 58.16 50.8497 56.88C49.8851 55.8297 49.0711 53.0996 48.8819 51.36C47.9428 49.599 46.7844 49.3851 45.652 49.2321C45.0788 49.1547 44.5124 49.5428 44.4624 50.1189C44.4273 50.5236 44.4097 50.9373 44.4097 51.36C44.4097 53.6267 44.8897 55.6267 45.8497 57.36C46.8097 59.0667 48.1297 60.4 49.8097 61.36Z" fill="white"/>
<path d="M61.5303 54.8884C61.9832 53.8821 62.2097 52.706 62.2097 51.36C62.2097 49.76 61.903 48.4133 61.2897 47.32C60.6764 46.2 59.863 45.36 58.8497 44.8C57.8364 44.24 56.743 43.96 55.5697 43.96C54.3964 43.96 53.303 44.24 52.2897 44.8C51.303 45.36 50.5164 46.2 49.9297 47.32V47.32C49.6803 47.7849 49.0491 47.9539 48.618 47.6497C47.8642 47.118 47.086 46.7308 46.3329 46.458C45.8958 46.2998 45.6597 45.804 45.8897 45.4V45.4C46.8764 43.6667 48.223 42.3333 49.9297 41.4C51.6364 40.4667 53.543 40 55.6497 40C57.7564 40 59.663 40.4667 61.3697 41.4C63.0764 42.3333 64.423 43.6667 65.4097 45.4C66.3964 47.1333 66.8897 49.12 66.8897 51.36C66.8897 51.8791 66.8625 52.3846 66.8081 52.8765C65.3023 54.1225 63.5472 54.687 61.8622 54.8594C61.7509 54.8708 61.6403 54.8804 61.5303 54.8884Z" fill="white"/>
<path d="M41.6772 42.9528C42.0767 41.6657 41.1147 40.36 39.7671 40.36H39.5506C38.6388 40.36 37.8425 40.9767 37.6143 41.8594L36.8415 44.7067C36.6386 45.4544 37.3591 46.246 38.1205 46.3897C38.564 46.4734 39.0275 46.5993 39.5311 46.7192C40.0163 46.8347 40.4976 46.5474 40.6531 46.0735L41.6772 42.9528Z" fill="white"/>
<path d="M35.3954 50.4431L35.5637 49.7918C35.7505 49.0695 36.16 48.4724 36.8817 48.2835V48.2835C38.3935 47.8876 39.683 49.3786 39.2198 50.8711L36.3404 60.1492C35.925 61.4877 34.6867 62.4 33.2852 62.4C31.8427 62.4 30.5786 61.4345 30.199 60.0428L28.3314 53.1949C27.7955 51.2299 25.0083 51.2299 24.4724 53.1949L22.6053 60.0408C22.2254 61.4337 20.9603 62.4 19.5165 62.4C18.1158 62.4 16.8777 61.4895 16.4603 60.1524L15.0498 55.6338C14.9692 55.3756 15.1235 55.1037 15.3833 55.0288V55.0288C16.3584 54.7477 17.4597 54.302 18.4772 53.6795C18.7653 53.5033 19.1499 53.1949 19.5132 52.8829C20.2639 52.2383 21.2196 51.6519 21.4723 50.6952V50.6952L21.5513 50.3958C21.7602 49.9183 21.9043 49.4018 21.9606 48.8462L23.5971 42.6498C23.9536 41.3002 25.1743 40.36 26.5702 40.36C27.977 40.36 29.2043 41.3146 29.5506 42.6781L31.5206 50.4348C32.03 52.4407 34.8774 52.4467 35.3954 50.4431Z" fill="white"/>
<path d="M15.3106 41.8575L17.3854 49.8497C17.5117 50.3363 17.3405 50.8581 16.9116 51.1204V51.1204C16.1583 51.5813 15.3117 51.9273 14.5523 52.1462V52.1462C14.245 52.2348 13.9315 52.0514 13.8362 51.7461L11.0922 42.956C10.6903 41.6682 11.6524 40.36 13.0014 40.36H13.3748C14.2858 40.36 15.0817 40.9757 15.3106 41.8575Z" fill="white"/>
<path d="M75.5215 47.2839C72.8774 47.9934 71.0828 49.1394 69.9013 50.4159C70.0052 48.5531 70.4507 46.8812 71.2375 45.4C72.1709 43.6933 73.4242 42.3733 74.9975 41.44C76.5975 40.48 78.3575 40 80.2775 40C82.0108 40 83.5175 40.3467 84.7975 41.04C85.569 41.4336 86.2476 41.8877 86.8332 42.4022C87.2192 42.7413 87.9175 42.4849 87.9175 41.9711C87.9175 41.0813 88.6388 40.36 89.5286 40.36H90.2175C91.4878 40.36 92.5175 41.3897 92.5175 42.66V46.4798C90.7065 48.3561 88.8415 48.7403 87.5283 48.6998C87.3803 48.2402 87.19 47.8069 86.9575 47.4C86.3442 46.28 85.5309 45.4267 84.5175 44.84C83.5042 44.2533 82.4109 43.96 81.2375 43.96C80.0642 43.96 78.9709 44.2533 77.9575 44.84C76.9673 45.3872 76.1553 46.2019 75.5215 47.2839Z" fill="white"/>
<path d="M87.9019 50.7881C87.9123 50.9755 87.9175 51.1661 87.9175 51.36C87.9175 52.88 87.5975 54.2133 86.9575 55.36C86.3442 56.48 85.5309 57.3333 84.5175 57.92C83.5042 58.5067 82.4109 58.8 81.2375 58.8C80.0909 58.8 78.9975 58.5067 77.9575 57.92C76.9442 57.3067 76.1175 56.4267 75.4775 55.28C74.8642 54.1333 74.5575 52.8 74.5575 51.28C74.5575 50.9376 74.5731 50.606 74.6042 50.2853C71.9027 51.3911 70.6723 53.0672 70.1751 54.2372C70.4008 55.3023 70.755 56.3033 71.2375 57.24C72.1709 58.9733 73.4242 60.3333 74.9975 61.32C76.5709 62.28 78.3042 62.76 80.1975 62.76C81.9042 62.76 83.4242 62.4133 84.7575 61.72C85.5356 61.3154 86.2182 60.8518 86.8056 60.3292C87.1976 59.9804 87.9175 60.241 87.9175 60.7656C87.9175 61.6683 88.6492 62.4 89.5519 62.4H90.2175C91.4878 62.4 92.5175 61.3703 92.5175 60.1V49.5412C90.874 50.5572 89.2658 50.8623 87.9019 50.7881Z" fill="white"/>
</g>
<defs>
<filter id="filter0_i_155_2" x="11" y="40" width="81.5175" height="22.76" filterUnits="userSpaceOnUse" color-interpolation-filters="sRGB">
<feFlood flood-opacity="0" result="BackgroundImageFix"/>
<feBlend mode="normal" in="SourceGraphic" in2="BackgroundImageFix" result="shape"/>
<feColorMatrix in="SourceAlpha" type="matrix" values="0 0 0 0 0 0 0 0 0 0 0 0 0 0 0 0 0 0 127 0" result="hardAlpha"/>
<feOffset/>
<feGaussianBlur stdDeviation="1.5"/>
<feComposite in2="hardAlpha" operator="arithmetic" k2="-1" k3="1"/>
<feColorMatrix type="matrix" values="0 0 0 0 0 0 0 0 0 0 0 0 0 0 0 0 0 0 0.32 0"/>
<feBlend mode="normal" in2="shape" result="effect1_innerShadow_155_2"/>
</filter>
</defs>
</svg>
