<svg width="95" height="28" viewBox="0 0 95 28" fill="none" xmlns="http://www.w3.org/2000/svg">
<path fill-rule="evenodd" clip-rule="evenodd" d="M45.229 25.6877C47.1869 26.7808 49.3778 27.3273 51.8018 27.3273C54.2569 27.3273 56.4944 26.7808 58.5144 25.6877C60.5655 24.5634 62.1815 22.9863 63.3624 20.9564C63.4222 20.8537 63.4804 20.7502 63.5372 20.646C62.2212 21.1551 60.8922 21.4401 59.6309 21.5698C58.3105 21.7056 57.0429 21.6743 55.9058 21.5451C55.8134 21.6008 55.7196 21.6543 55.6243 21.7059C54.4433 22.3617 53.1692 22.6897 51.8018 22.6897C49.6575 22.6897 47.8706 21.9401 46.441 20.4411C45.5166 19.4295 44.8977 18.145 44.5843 16.5876L44.1043 16.7866C42.8338 13.7224 40.6622 12.5041 39.0407 12.0912C38.9708 12.7016 38.9359 13.33 38.9359 13.9765C38.9359 16.6311 39.4953 18.9733 40.6141 21.0032C41.7328 23.002 43.2712 24.5634 45.229 25.6877ZM58.8881 18.1087C59.4159 16.9302 59.6798 15.5528 59.6798 13.9765C59.6798 12.1027 59.3224 10.5256 58.6077 9.2452C57.8929 7.93355 56.945 6.94981 55.7641 6.29398C54.5832 5.63815 53.309 5.31024 51.9416 5.31024C50.5743 5.31024 49.3001 5.63815 48.1192 6.29398C46.9693 6.94981 46.0526 7.93355 45.3689 9.2452C45.301 9.3722 45.2366 9.50211 45.1755 9.63494C43.6843 8.36373 42.057 7.59954 40.5566 7.18405C40.5908 7.12131 40.6255 7.05884 40.6607 6.99665C41.8105 4.96671 43.3799 3.40522 45.3689 2.31217C47.3578 1.21913 49.5798 0.672607 52.0349 0.672607C54.49 0.672607 56.712 1.21913 58.7009 2.31217C60.6898 3.40522 62.2592 4.96671 63.4091 6.99665C64.5589 9.02659 65.1338 11.3532 65.1338 13.9765C65.1338 14.5845 65.1021 15.1765 65.0387 15.7526C63.2838 17.2118 61.2386 17.8728 59.2749 18.0747C59.1453 18.0881 59.0163 18.0994 58.8881 18.1087ZM35.7093 4.26751C36.196 2.69134 35.0177 1.09421 33.3681 1.09421C32.2499 1.09421 31.2736 1.85117 30.9951 2.93406L30.3079 5.60528C31.7847 5.25438 33.4962 5.14058 35.3325 5.48743L35.7093 4.26751ZM22.8822 8.80614C23.5735 11.5414 26.8177 12.0957 28.5387 10.4603L29.3774 11.5416C30.0324 11.029 31.6742 10.2466 33.7927 10.4734L29.5285 24.2813C29.0467 25.8416 27.6043 26.9057 25.9714 26.9057C24.2908 26.9057 22.8186 25.7798 22.3784 24.1579L21.1386 19.5896C20.2562 16.3379 15.6435 16.3379 14.7611 19.5896L13.5219 24.1556C13.0813 25.7788 11.6079 26.9057 9.92591 26.9057C8.29385 26.9057 6.85173 25.8436 6.36758 24.285L4.7888 19.2025C4.97471 19.1563 5.15898 19.1065 5.3401 19.054C6.53628 18.7075 7.89004 18.1578 9.14849 17.3841C11.5588 15.9023 14.3836 13.033 13.444 8.78394L13.3601 8.80249L14.6844 3.76363C15.0978 2.1907 16.5197 1.09421 18.1461 1.09421C19.785 1.09421 21.2146 2.20743 21.6162 3.79642L22.8822 8.80614ZM6.64242 9.11219C6.90418 10.1255 7.51447 10.8393 8.2671 11.2534C7.98832 11.8315 7.41597 12.4149 6.45626 13.0049C5.65101 13.4999 4.73469 13.8774 3.90965 14.1164C3.67533 14.1843 3.45708 14.2385 3.2598 14.2803L0.185242 4.38249C-0.321752 2.75036 0.898001 1.09421 2.60707 1.09421C3.76336 1.09421 4.77324 1.87637 5.06245 2.99591L6.64242 9.11219ZM75.1932 9.20305C72.1118 10.034 70.0204 11.3761 68.6435 12.8711C68.7646 10.6895 69.2837 8.73132 70.2007 6.99665C71.2884 4.99794 72.749 3.45206 74.5826 2.35902C76.4472 1.23474 78.4983 0.672607 80.7358 0.672607C82.7558 0.672607 84.5117 1.07859 86.0034 1.89057C86.8999 2.35023 87.6887 2.88025 88.3698 3.48063C88.8209 3.87827 89.6394 3.57867 89.6394 2.97734C89.6394 1.93732 90.4825 1.09421 91.5225 1.09421L92.3198 1.09421C93.8001 1.09421 95.0002 2.29426 95.0002 3.7746V8.2612C92.8897 10.4585 90.7161 10.9085 89.1858 10.8611C89.0133 10.3228 88.7916 9.81539 88.5206 9.33889C87.8058 8.02724 86.858 7.02788 85.6771 6.34083C84.4961 5.65377 83.222 5.31024 81.8546 5.31024C80.4872 5.31024 79.213 5.65377 78.0321 6.34083C76.8781 6.98173 75.9317 7.93581 75.1932 9.20305ZM89.6212 13.3067C89.6333 13.5262 89.6394 13.7495 89.6394 13.9765C89.6394 15.7566 89.2665 17.3181 88.5206 18.661C87.8058 19.9727 86.858 20.972 85.6771 21.6591C84.4961 22.3461 83.222 22.6897 81.8546 22.6897C80.5183 22.6897 79.2441 22.3461 78.0321 21.6591C76.8512 20.9408 75.8878 19.9102 75.142 18.5673C74.4272 17.2244 74.0698 15.6629 74.0698 13.8828C74.0698 13.4819 74.0879 13.0936 74.1242 12.718C70.9759 14.0132 69.542 15.9761 68.9626 17.3463C69.2257 18.5936 69.6384 19.7658 70.2007 20.8627C71.2884 22.8927 72.749 24.4854 74.5826 25.6409C76.4161 26.7652 78.4361 27.3273 80.6426 27.3273C82.6315 27.3273 84.4029 26.9213 85.9567 26.1093C86.8608 25.6369 87.6544 25.0958 88.3375 24.4859C88.7956 24.077 89.6394 24.3814 89.6394 24.9954C89.6394 26.0504 90.4946 26.9057 91.5496 26.9057H92.3198C93.8001 26.9057 95.0002 25.7056 95.0002 24.2253V11.8465C93.0848 13.0364 91.2106 13.3936 89.6212 13.3067Z" fill="white"/>
</svg>
